<svg xmlns="http://www.w3.org/2000/svg" width="162" height="69.784" viewBox="0 0 162 69.784">
  <g id="Grupo_13" data-name="Grupo 13" transform="translate(-119.518 -120.232)">
    <g id="Grupo_10" data-name="Grupo 10" transform="translate(119.518 120.232)">
      <path id="Caminho_28" data-name="Caminho 28" d="M279.832,191.873v-4.683h-3.326a8.7,8.7,0,0,0-3.086.56,8.5,8.5,0,0,0-2.66,1.593l-1.6-2.187h-1.171V205.6h4.842V195.437a3.469,3.469,0,0,1,.284-1.395,3.519,3.519,0,0,1,.781-1.137,3.63,3.63,0,0,1,1.17-.757,3.758,3.758,0,0,1,1.436-.276Z" transform="translate(-238.022 -173.646)" fill="none"/>
      <path id="Caminho_29" data-name="Caminho 29" d="M160.267,180.82a9.829,9.829,0,0,0,3.086,2.049,9.9,9.9,0,0,0,7.555,0,9.732,9.732,0,0,0,3.077-2.049,9.683,9.683,0,0,0,2.838-6.93,10.169,10.169,0,0,0-.762-4,9.376,9.376,0,0,0-2.075-3.082,9.172,9.172,0,0,0-3.077-1.98,10.18,10.18,0,0,0-3.674-.695l4.335-1.086-.966-3.856-8.268,2.07.915,3.655a9.686,9.686,0,0,0-2.983,1.995,9.5,9.5,0,0,0-2.084,3.09,9.829,9.829,0,0,0-.763,3.891,9.678,9.678,0,0,0,.763,3.849A9.53,9.53,0,0,0,160.267,180.82Zm2.439-8.988a4.829,4.829,0,0,1,1.019-1.584,4.4,4.4,0,0,1,1.525-1.016,5.138,5.138,0,0,1,3.742,0,4.5,4.5,0,0,1,1.534,1.016,4.888,4.888,0,0,1,1.038,1.584,5.717,5.717,0,0,1,0,4.107,4.762,4.762,0,0,1-1.038,1.584,4.667,4.667,0,0,1-1.534,1.016,4.863,4.863,0,0,1-1.871.362,4.579,4.579,0,0,1-1.871-.387,4.776,4.776,0,0,1-1.525-1.059,4.944,4.944,0,0,1-1.019-1.584,5.186,5.186,0,0,1-.373-1.98A5.444,5.444,0,0,1,162.705,171.832Z" transform="translate(-149.769 -151.324)" fill="none"/>
      <path id="Caminho_30" data-name="Caminho 30" d="M174.733,305.4a9.436,9.436,0,0,0-3.077-2.04,9.8,9.8,0,0,0-3.786-.732,7.33,7.33,0,0,0-1.348.13,8.073,8.073,0,0,0-1.339.37,5.676,5.676,0,0,0-1.206.62,4.352,4.352,0,0,0-.949.861V296h-4.86v16.392a9.849,9.849,0,0,0,.763,3.917,9.433,9.433,0,0,0,2.084,3.074,9.536,9.536,0,0,0,3.086,2.014,9.835,9.835,0,0,0,3.769.723,10.1,10.1,0,0,0,3.786-.706,9.286,9.286,0,0,0,3.077-1.989,9.384,9.384,0,0,0,2.075-3.074,10.01,10.01,0,0,0,.762-3.96,9.729,9.729,0,0,0-2.838-6.991Z" transform="translate(-150.366 -260.517)" fill="none"/>
      <rect id="Retângulo_5" data-name="Retângulo 5" width="4.877" height="18.441" transform="translate(30.431 43.479)" fill="none"/>
      <path id="Caminho_31" data-name="Caminho 31" d="M271.871,296.2a3.415,3.415,0,0,0-1.038-.672,3.347,3.347,0,0,0-2.536,0,3.3,3.3,0,0,0-1.029.672,3.185,3.185,0,0,0-.692,1,3.014,3.014,0,0,0,0,2.437,3.2,3.2,0,0,0,.692.99,3.279,3.279,0,0,0,1.029.672,3.347,3.347,0,0,0,2.536,0,3.4,3.4,0,0,0,1.038-.672,3.149,3.149,0,0,0,.7-.99,3.019,3.019,0,0,0,0-2.437A3.132,3.132,0,0,0,271.871,296.2Z" transform="translate(-236.687 -259.942)" fill="none"/>
      <path id="Caminho_32" data-name="Caminho 32" d="M183.148,215.777a4.776,4.776,0,0,0,1.525,1.059,4.579,4.579,0,0,0,1.871.387,4.863,4.863,0,0,0,1.871-.362,4.667,4.667,0,0,0,1.534-1.016,4.762,4.762,0,0,0,1.038-1.584,5.717,5.717,0,0,0,0-4.107,4.888,4.888,0,0,0-1.038-1.584,4.5,4.5,0,0,0-1.534-1.016,5.138,5.138,0,0,0-3.742,0,4.4,4.4,0,0,0-1.525,1.016,4.828,4.828,0,0,0-1.019,1.584,5.444,5.444,0,0,0-.373,2.058,5.186,5.186,0,0,0,.373,1.98A4.944,4.944,0,0,0,183.148,215.777Z" transform="translate(-169.193 -189.646)" fill="#0e1319"/>
      <path id="Caminho_33" data-name="Caminho 33" d="M119.518,120.232v69.784h49.666V120.232Zm8.413,18.675a9.5,9.5,0,0,1,2.084-3.09A9.685,9.685,0,0,1,133,133.821l-.915-3.655,8.268-2.07.966,3.856-4.335,1.086a10.18,10.18,0,0,1,3.674.7,9.172,9.172,0,0,1,3.077,1.98,9.375,9.375,0,0,1,2.075,3.082,10.169,10.169,0,0,1,.762,4,9.6,9.6,0,0,1-5.915,8.98,9.9,9.9,0,0,1-7.555,0,9.828,9.828,0,0,1-3.086-2.049,9.53,9.53,0,0,1-2.084-3.082,9.678,9.678,0,0,1-.763-3.849A9.829,9.829,0,0,1,127.931,138.907Zm18.028,37.158a9.384,9.384,0,0,1-2.075,3.074,9.287,9.287,0,0,1-3.077,1.989,10.1,10.1,0,0,1-3.786.706,9.835,9.835,0,0,1-3.769-.723,9.536,9.536,0,0,1-3.086-2.014,9.433,9.433,0,0,1-2.084-3.074,9.849,9.849,0,0,1-.763-3.917V155.711h4.86v8.609a4.351,4.351,0,0,1,.949-.861,5.675,5.675,0,0,1,1.206-.62,8.074,8.074,0,0,1,1.339-.37,7.329,7.329,0,0,1,1.348-.13,9.8,9.8,0,0,1,3.786.732,9.436,9.436,0,0,1,3.077,2.04,9.729,9.729,0,0,1,2.838,6.991A10.01,10.01,0,0,1,145.96,176.064Zm8.866,6.088h-4.877V163.711h4.877Zm.577-22.23a3.15,3.15,0,0,1-.7.99,3.4,3.4,0,0,1-1.038.672,3.347,3.347,0,0,1-2.536,0,3.279,3.279,0,0,1-1.029-.672,3.2,3.2,0,0,1-.692-.99,3.015,3.015,0,0,1,0-2.437,3.185,3.185,0,0,1,.692-1,3.3,3.3,0,0,1,1.029-.672,3.347,3.347,0,0,1,2.536,0,3.415,3.415,0,0,1,1.038.672,3.132,3.132,0,0,1,.7,1,3.019,3.019,0,0,1,0,2.437Zm-.008-20.43a3.519,3.519,0,0,0-.781,1.137,3.469,3.469,0,0,0-.284,1.395v10.159h-4.842V133.741h1.171l1.6,2.187a8.5,8.5,0,0,1,2.66-1.593,8.7,8.7,0,0,1,3.086-.56h3.326v4.683H158a3.758,3.758,0,0,0-1.436.276A3.63,3.63,0,0,0,155.395,139.492Zm3.221,21.346a.32.32,0,0,0,.071.1.341.341,0,0,0,.105.07.326.326,0,0,0,.127.025h1.631v.655H158.92a.323.323,0,0,0-.127.025.337.337,0,0,0-.105.071.326.326,0,0,0-.071.106.333.333,0,0,0-.025.127.323.323,0,0,0,.025.126.316.316,0,0,0,.071.1.334.334,0,0,0,.105.069.323.323,0,0,0,.127.025h1.631V163h-2.568v-.158l.2-.178a1.052,1.052,0,0,1-.178-.3.945.945,0,0,1-.063-.342.962.962,0,0,1,.067-.351.711.711,0,0,1,.233-.3.643.643,0,0,1-.139-.136.77.77,0,0,1-.094-.162.8.8,0,0,1-.051-.176,1.054,1.054,0,0,1-.016-.18.957.957,0,0,1,.077-.383.976.976,0,0,1,.523-.521.967.967,0,0,1,.384-.077h1.631v.652H158.92a.329.329,0,0,0-.3.2.335.335,0,0,0-.025.127A.325.325,0,0,0,158.616,160.837Zm1.891,20.386a1.208,1.208,0,0,1-.265.417,1.246,1.246,0,0,1-.425.282,1.509,1.509,0,0,1-.573.1,1.439,1.439,0,0,1-.55-.1,1.315,1.315,0,0,1-.43-.282,1.267,1.267,0,0,1-.28-.417,1.311,1.311,0,0,1-.1-.51,1,1,0,0,1,.031-.247,1.285,1.285,0,0,1,.086-.237,1.477,1.477,0,0,1,.129-.219,1.839,1.839,0,0,1,.161-.2l-.3-.254V179.4h2.563v.159l-.353.254a2,2,0,0,1,.157.2,1.446,1.446,0,0,1,.127.22,1.341,1.341,0,0,1,.085.236.982.982,0,0,1,.031.246A1.414,1.414,0,0,1,160.507,181.224Zm-.011-3.948a1.311,1.311,0,0,1-.694.7,1.258,1.258,0,0,1-.509.1,1.459,1.459,0,0,1-.551-.1,1.433,1.433,0,0,1-.448-.282,1.339,1.339,0,0,1-.3-.417,1.2,1.2,0,0,1-.11-.509,1.24,1.24,0,0,1,.041-.316,1.278,1.278,0,0,1,.119-.295,1.263,1.263,0,0,1,.191-.259,1.2,1.2,0,0,1,.259-.205l.482.48a.659.659,0,0,0-.316.239.6.6,0,0,0-.084.169.628.628,0,0,0-.029.187.593.593,0,0,0,.056.253.62.62,0,0,0,.154.206.749.749,0,0,0,.236.138.87.87,0,0,0,.3.05.634.634,0,0,0,.252-.05.671.671,0,0,0,.206-.138.647.647,0,0,0,.189-.459.646.646,0,0,0-.026-.185.668.668,0,0,0-.075-.167.631.631,0,0,0-.277-.238l.482-.48a1.287,1.287,0,0,1,.233.21,1.322,1.322,0,0,1,.175.257,1.276,1.276,0,0,1,.11.29,1.333,1.333,0,0,1,.037.313A1.281,1.281,0,0,1,160.5,177.275Zm.011-3.5a1.208,1.208,0,0,1-.265.417,1.243,1.243,0,0,1-.425.282,1.509,1.509,0,0,1-.573.1,1.439,1.439,0,0,1-.55-.1,1.312,1.312,0,0,1-.43-.282,1.267,1.267,0,0,1-.28-.417,1.311,1.311,0,0,1-.1-.51,1,1,0,0,1,.031-.247,1.285,1.285,0,0,1,.086-.237,1.466,1.466,0,0,1,.129-.219,1.818,1.818,0,0,1,.161-.2l-.3-.254v-.159h2.563v.159l-.353.254a2,2,0,0,1,.157.2,1.454,1.454,0,0,1,.127.219,1.346,1.346,0,0,1,.085.236.983.983,0,0,1,.031.246A1.414,1.414,0,0,1,160.507,173.778Zm-.011-3.948a1.286,1.286,0,0,1-.283.417,1.341,1.341,0,0,1-.429.282,1.466,1.466,0,0,1-1.08,0,1.351,1.351,0,0,1-.431-.282,1.3,1.3,0,0,1-.285-.417,1.269,1.269,0,0,1-.1-.509,1.152,1.152,0,0,1,.014-.179.938.938,0,0,1,.047-.18.763.763,0,0,1,.085-.164.5.5,0,0,1,.129-.13h-1.2v-.659h3.59v.158l-.353.254a2.1,2.1,0,0,1,.157.2,1.447,1.447,0,0,1,.127.22,1.345,1.345,0,0,1,.085.236.977.977,0,0,1,.031.246A1.282,1.282,0,0,1,160.5,169.83Zm0-3.953a1.289,1.289,0,0,1-.28.417,1.316,1.316,0,0,1-.428.282,1.409,1.409,0,0,1-.545.1,1.455,1.455,0,0,1-.556-.1,1.261,1.261,0,0,1-.705-.7,1.324,1.324,0,0,1-.1-.51,1.276,1.276,0,0,1,.039-.314,1.306,1.306,0,0,1,.11-.291,1.342,1.342,0,0,1,.176-.258,1.318,1.318,0,0,1,.234-.211l1.48,1.228a.379.379,0,0,0,.016-.076c0-.026,0-.051,0-.077a.644.644,0,0,0-.026-.184.668.668,0,0,0-.075-.167.635.635,0,0,0-.277-.239l.482-.48a1.3,1.3,0,0,1,.233.21,1.346,1.346,0,0,1,.175.257,1.283,1.283,0,0,1,.11.29,1.336,1.336,0,0,1,.037.313A1.3,1.3,0,0,1,160.5,165.877Zm1.031-8.21h-.66l.005-.365a.561.561,0,0,0-.031-.185.631.631,0,0,0-.086-.164.642.642,0,0,0-.131-.133.718.718,0,0,0-.165-.093q.046.108.091.219a.6.6,0,0,1,.045.224,1.183,1.183,0,0,1-.084.446,1.082,1.082,0,0,1-.615.613,1.312,1.312,0,0,1-.5.09h-1.42v-.652h1.42a.661.661,0,0,0,.239-.039.5.5,0,0,0,.17-.107.431.431,0,0,0,.1-.157.548.548,0,0,0,.034-.193.407.407,0,0,0-.047-.191.533.533,0,0,0-.124-.157.591.591,0,0,0-.174-.106.542.542,0,0,0-.2-.038h-1.42v-.66h2.244a1.289,1.289,0,0,1,.509.106,1.314,1.314,0,0,1,.415.282,1.354,1.354,0,0,1,.28.416,1.261,1.261,0,0,1,.1.508Z" transform="translate(-119.518 -120.232)" fill="#0e1319"/>
      <path id="Caminho_34" data-name="Caminho 34" d="M314.039,416.819a.742.742,0,0,0-.223-.141.684.684,0,0,0-.52,0,.743.743,0,0,0-.223.141.7.7,0,0,0-.156.207.561.561,0,0,0-.059.253.7.7,0,0,0,.046.253.58.58,0,0,0,.134.206.635.635,0,0,0,.219.138.912.912,0,0,0,.6,0,.637.637,0,0,0,.219-.138.578.578,0,0,0,.134-.206.7.7,0,0,0,.046-.253.566.566,0,0,0-.059-.253A.7.7,0,0,0,314.039,416.819Z" transform="translate(-273.831 -356.797)" fill="#0e1319"/>
      <path id="Caminho_35" data-name="Caminho 35" d="M312.863,343.015c0,.03,0,.061,0,.092a.661.661,0,0,0,.049.253.6.6,0,0,0,.141.206.671.671,0,0,0,.219.138.79.79,0,0,0,.289.05c.024,0,.051,0,.082,0s.061-.006.092-.012a.912.912,0,0,0,.09-.02.342.342,0,0,0,.077-.031l-1.012-.763A.409.409,0,0,0,312.863,343.015Z" transform="translate(-273.831 -297.972)" fill="#0e1319"/>
      <path id="Caminho_36" data-name="Caminho 36" d="M314.039,379.932a.742.742,0,0,0-.223-.14.681.681,0,0,0-.52,0,.742.742,0,0,0-.223.14.7.7,0,0,0-.156.207.56.56,0,0,0-.059.253.7.7,0,0,0,.046.253.578.578,0,0,0,.134.206.632.632,0,0,0,.219.138.908.908,0,0,0,.6,0,.634.634,0,0,0,.219-.138.576.576,0,0,0,.134-.206.7.7,0,0,0,.046-.253.565.565,0,0,0-.059-.253A.7.7,0,0,0,314.039,379.932Z" transform="translate(-273.831 -327.356)" fill="#0e1319"/>
      <path id="Caminho_37" data-name="Caminho 37" d="M314.039,360.372a.75.75,0,0,0-.223-.141.681.681,0,0,0-.52,0,.751.751,0,0,0-.223.141.7.7,0,0,0-.156.207.563.563,0,0,0-.059.253.673.673,0,0,0,.048.253.6.6,0,0,0,.138.206.648.648,0,0,0,.219.138.811.811,0,0,0,.293.05.731.731,0,0,0,.492-.188.644.644,0,0,0,.151-.206.593.593,0,0,0,.055-.253.568.568,0,0,0-.059-.253A.7.7,0,0,0,314.039,360.372Z" transform="translate(-273.831 -311.744)" fill="#0e1319"/>
    </g>
    <path id="Caminho_38" data-name="Caminho 38" d="M190.63,353.808a4.762,4.762,0,0,0-1.534-1.05,4.671,4.671,0,0,0-1.871-.379,4.261,4.261,0,0,0-1.871.422,5.156,5.156,0,0,0-1.534,1.119,5.21,5.21,0,0,0-1.028,1.6,4.861,4.861,0,0,0-.372,1.868,5.193,5.193,0,0,0,.372,1.98,4.832,4.832,0,0,0,2.563,2.643,4.71,4.71,0,0,0,3.742,0,4.867,4.867,0,0,0,1.534-1.059,4.988,4.988,0,0,0,1.038-1.584,5.085,5.085,0,0,0,.382-1.98,5.152,5.152,0,0,0-.382-1.989A4.973,4.973,0,0,0,190.63,353.808Z" transform="translate(-50.204 -185.286)" fill="#0e1319"/>
    <path id="Caminho_39" data-name="Caminho 39" d="M174.733,305.4a9.436,9.436,0,0,0-3.077-2.04,9.8,9.8,0,0,0-3.786-.732,7.33,7.33,0,0,0-1.348.13,8.073,8.073,0,0,0-1.339.37,5.676,5.676,0,0,0-1.206.62,4.352,4.352,0,0,0-.949.861V296h-4.86v16.392a9.849,9.849,0,0,0,.763,3.917,9.433,9.433,0,0,0,2.084,3.074,9.536,9.536,0,0,0,3.086,2.014,9.835,9.835,0,0,0,3.769.723,10.1,10.1,0,0,0,3.786-.706,9.286,9.286,0,0,0,3.077-1.989,9.384,9.384,0,0,0,2.075-3.074,10.01,10.01,0,0,0,.762-3.96,9.729,9.729,0,0,0-2.838-6.991Z" transform="translate(-30.848 -140.285)" fill="none"/>
    <g id="Grupo_12" data-name="Grupo 12" transform="translate(173.653 129.929)">
      <g id="Grupo_11" data-name="Grupo 11" transform="translate(0 0)">
        <path id="Caminho_40" data-name="Caminho 40" d="M394.9,182.012h-7.2v-6.43h22.7v6.43h-7.2v18.165H394.9Z" transform="translate(-387.699 -174.106)" fill="#0e1319"/>
        <path id="Caminho_41" data-name="Caminho 41" d="M516.281,212.279H502.93a3.233,3.233,0,0,0,1.406,1.669,4.778,4.778,0,0,0,2.459.58,6.207,6.207,0,0,0,2.126-.316,7.467,7.467,0,0,0,1.88-1.089l4.146,4.181q-2.811,3.092-8.4,3.092a13.807,13.807,0,0,1-6.113-1.283,9.7,9.7,0,0,1-4.076-3.566,9.937,9.937,0,0,1-.017-10.277,9.725,9.725,0,0,1,3.9-3.531,12.847,12.847,0,0,1,10.892-.106,9.145,9.145,0,0,1,3.83,3.408,9.844,9.844,0,0,1,1.423,5.376Q516.387,210.593,516.281,212.279Zm-12.438-5.727a3.166,3.166,0,0,0-1.054,1.9h6.184a3.229,3.229,0,0,0-1.054-1.88,3.043,3.043,0,0,0-2.038-.685A3.1,3.1,0,0,0,503.843,206.552Z" transform="translate(-473.276 -193.974)" fill="#0e1319"/>
        <path id="Caminho_42" data-name="Caminho 42" d="M614.08,219.131a9.77,9.77,0,0,1-4.04-3.549,9.846,9.846,0,0,1,0-10.312,9.819,9.819,0,0,1,4.04-3.531,13.129,13.129,0,0,1,5.85-1.265,11.391,11.391,0,0,1,6.008,1.511,7.841,7.841,0,0,1,3.443,4.181l-6.149,3.022q-1.125-2.53-3.338-2.53a3.082,3.082,0,0,0-2.337.984,3.879,3.879,0,0,0-.931,2.776,3.931,3.931,0,0,0,.931,2.811,3.08,3.08,0,0,0,2.337.984q2.213,0,3.338-2.53l6.149,3.022a7.839,7.839,0,0,1-3.443,4.181,11.387,11.387,0,0,1-6.008,1.511A13.129,13.129,0,0,1,614.08,219.131Z" transform="translate(-563.995 -193.974)" fill="#0e1319"/>
        <path id="Caminho_43" data-name="Caminho 43" d="M739.735,176.915q2.161,2.143,2.161,6.465v10.962h-7.941V184.75q0-3.3-2.354-3.3a2.749,2.749,0,0,0-2.161.931,4.344,4.344,0,0,0-.826,2.934v9.03h-7.941V168.271h7.941v8.4a8.027,8.027,0,0,1,5.411-1.9A7.754,7.754,0,0,1,739.735,176.915Z" transform="translate(-653.46 -168.271)" fill="#0e1319"/>
        <path id="Caminho_44" data-name="Caminho 44" d="M413.185,300.425a8.772,8.772,0,0,1,3.373,3.478,11.721,11.721,0,0,1,0,10.523,8.743,8.743,0,0,1-3.373,3.5,9.235,9.235,0,0,1-4.655,1.212q-3.549,0-5.27-1.933v1.581H395.7V292.712h7.941v8.152a6.7,6.7,0,0,1,4.884-1.651A9.235,9.235,0,0,1,413.185,300.425Zm-4.3,11.524a4.1,4.1,0,0,0,.878-2.793,4.029,4.029,0,0,0-.878-2.776,3.061,3.061,0,0,0-4.5,0,4.026,4.026,0,0,0-.878,2.776,4.094,4.094,0,0,0,.878,2.793,3.025,3.025,0,0,0,4.5,0Z" transform="translate(-394.089 -267.592)" fill="#0e1319"/>
        <path id="Caminho_45" data-name="Caminho 45" d="M517.929,343.553A9.862,9.862,0,0,1,513.94,340a9.918,9.918,0,0,1,0-10.295,9.742,9.742,0,0,1,3.988-3.531,13.757,13.757,0,0,1,11.524,0,9.622,9.622,0,0,1,3.97,3.531,10.021,10.021,0,0,1,0,10.295,9.74,9.74,0,0,1-3.97,3.549,13.584,13.584,0,0,1-11.524,0Zm7.993-5.9a4.1,4.1,0,0,0,.878-2.793,4.029,4.029,0,0,0-.878-2.776,3.061,3.061,0,0,0-4.5,0,4.026,4.026,0,0,0-.878,2.776,4.094,4.094,0,0,0,.878,2.793,3.025,3.025,0,0,0,4.5,0Z" transform="translate(-487.308 -293.294)" fill="#0e1319"/>
        <path id="Caminho_46" data-name="Caminho 46" d="M635.94,343.553A9.863,9.863,0,0,1,631.953,340a9.917,9.917,0,0,1,0-10.295,9.742,9.742,0,0,1,3.988-3.531,13.757,13.757,0,0,1,11.524,0,9.624,9.624,0,0,1,3.97,3.531,10.021,10.021,0,0,1,0,10.295,9.742,9.742,0,0,1-3.97,3.549,13.584,13.584,0,0,1-11.524,0Zm7.993-5.9a4.1,4.1,0,0,0,.878-2.793,4.029,4.029,0,0,0-.878-2.776,3.061,3.061,0,0,0-4.5,0,4.026,4.026,0,0,0-.878,2.776,4.094,4.094,0,0,0,.878,2.793,3.025,3.025,0,0,0,4.5,0Z" transform="translate(-581.498 -293.294)" fill="#0e1319"/>
        <path id="Caminho_47" data-name="Caminho 47" d="M751.517,344.309a13.887,13.887,0,0,1-3.865-1.371l2.178-5.235a11.4,11.4,0,0,0,3.163,1.264,14.589,14.589,0,0,0,3.548.457,5.526,5.526,0,0,0,1.915-.228.741.741,0,0,0,.545-.685q0-.456-.685-.632a18.549,18.549,0,0,0-2.231-.351,29.254,29.254,0,0,1-4.005-.72,6.276,6.276,0,0,1-2.9-1.7,4.938,4.938,0,0,1-1.247-3.619,5.365,5.365,0,0,1,1.124-3.338,7.574,7.574,0,0,1,3.355-2.354,14.636,14.636,0,0,1,5.358-.879,22.477,22.477,0,0,1,4.269.4,13.016,13.016,0,0,1,3.566,1.177l-2.178,5.235a11.244,11.244,0,0,0-5.551-1.406q-2.6,0-2.6.913,0,.457.7.65a16.2,16.2,0,0,0,2.214.369,26.959,26.959,0,0,1,3.988.738,6.43,6.43,0,0,1,2.881,1.722,4.94,4.94,0,0,1,1.247,3.619,5.268,5.268,0,0,1-1.124,3.268,7.573,7.573,0,0,1-3.373,2.354,15,15,0,0,1-5.446.878A22.458,22.458,0,0,1,751.517,344.309Z" transform="translate(-674.992 -293.294)" fill="#0e1319"/>
        <path id="Caminho_48" data-name="Caminho 48" d="M859.126,328.118a9.908,9.908,0,0,1-4.884,1.019,9.018,9.018,0,0,1-6.219-1.95q-2.179-1.95-2.178-5.85v-4.919h-2.635v-5.8h2.635v-5.376h7.941v5.376h3.935v5.8h-3.935v4.849a1.935,1.935,0,0,0,.457,1.37,1.554,1.554,0,0,0,1.195.492,3.106,3.106,0,0,0,1.792-.527Z" transform="translate(-751.26 -277.596)" fill="#0e1319"/>
      </g>
    </g>
  </g>
</svg>
